<?xml version="1.0" encoding="UTF-8"?><svg id="Layer_1" xmlns="http://www.w3.org/2000/svg" width="105.82" height="29.82" viewBox="0 0 105.82 29.82"><defs><style>.cls-1{stroke-width:0px;}</style></defs><path class="cls-1" d="m3.66,13.18V3.11H0V.71h10.18v2.4h-3.8v10.06h-2.72Z"/><path class="cls-1" d="m11.89,13.18V0h2.56v5.68l-.51.22c.12-.42.36-.81.7-1.17s.77-.63,1.26-.85c.49-.22.98-.32,1.5-.32.72,0,1.33.14,1.82.42.49.29.86.71,1.1,1.29s.37,1.29.37,2.15v5.76h-2.57v-5.57c0-.42-.06-.79-.18-1.08s-.3-.5-.54-.62c-.23-.13-.54-.19-.92-.18-.29,0-.56.04-.8.13-.23.09-.46.22-.64.39s-.32.36-.42.57c-.1.22-.14.44-.14.71v5.65h-2.57.02-.02Z"/><path class="cls-1" d="m27.53,13.35c-1.05,0-1.95-.21-2.74-.62-.78-.42-1.38-.98-1.81-1.71s-.64-1.55-.64-2.48c0-.73.12-1.41.37-2.01s.58-1.13,1.01-1.58c.43-.43.96-.79,1.55-1.02s1.26-.37,1.97-.37c.66,0,1.26.12,1.8.34.54.23,1.02.56,1.43.98s.71.91.93,1.49c.22.57.32,1.19.31,1.87l-.02.79h-7.71l-.42-1.57h6l-.31.32v-.38c-.02-.32-.13-.62-.32-.88s-.42-.44-.71-.6-.61-.22-.97-.22c-.54,0-1,.1-1.37.31s-.64.51-.83.89c-.19.39-.28.87-.28,1.43s.12,1.05.36,1.47.59.74,1.05.98.98.33,1.6.33c.42,0,.8-.07,1.17-.2s.73-.36,1.15-.68l1.21,1.69c-.33.3-.71.56-1.15.77-.42.21-.86.38-1.3.48-.44.11-.89.16-1.35.16h0l.02.02Z"/><path class="cls-1" d="m6.65,29.81c-.93,0-1.79-.16-2.58-.48s-1.47-.77-2.05-1.35-1.02-1.26-1.35-2.03c-.32-.79-.48-1.65-.48-2.58s.16-1.78.48-2.57.77-1.47,1.35-2.05c.58-.59,1.26-1.03,2.05-1.36.8-.32,1.65-.48,2.58-.48s1.79.16,2.57.48,1.46.78,2.03,1.36c.58.58,1.03,1.27,1.36,2.06s.48,1.63.48,2.56-.16,1.78-.48,2.57-.77,1.47-1.36,2.05c-.58.59-1.27,1.03-2.03,1.36s-1.63.48-2.57.48h0Zm0-2.54c.53,0,1.02-.1,1.47-.3s.83-.47,1.17-.81c.32-.34.59-.77.77-1.25s.27-.99.27-1.57-.09-1.08-.27-1.55-.43-.89-.77-1.25c-.32-.36-.72-.63-1.17-.82-.44-.2-.93-.29-1.47-.29s-1.02.1-1.48.29c-.46.2-.85.47-1.18.82s-.59.77-.78,1.25c-.18.48-.27,1-.27,1.58,0,.74.16,1.41.48,2.01.32.59.76,1.06,1.3,1.39s1.18.51,1.91.51h.02v-.02Z"/><path class="cls-1" d="m18.05,29.64l-4.02-9.42h2.81l2.56,6.99-.58.11,2.68-7.1h2.76l-4.23,9.42s-1.98,0-1.98,0Z"/><path class="cls-1" d="m29.91,29.81c-1.05,0-1.95-.21-2.74-.62-.78-.42-1.38-.98-1.81-1.71s-.64-1.55-.64-2.48c0-.73.12-1.41.37-2.01s.58-1.13,1.01-1.58c.43-.43.96-.79,1.55-1.02s1.26-.37,1.97-.37c.66,0,1.26.12,1.8.34.54.23,1.02.56,1.43.98s.71.91.93,1.49c.22.57.32,1.19.31,1.87l-.02.79h-7.71l-.42-1.57h6l-.31.32v-.38c-.02-.32-.13-.62-.32-.88s-.42-.44-.71-.6-.61-.22-.97-.22c-.54,0-1,.1-1.37.31s-.64.51-.83.89c-.19.39-.28.87-.28,1.43s.12,1.05.36,1.47.59.74,1.05.98.98.33,1.6.33c.42,0,.8-.07,1.17-.2.34-.13.73-.36,1.15-.68l1.21,1.69c-.33.3-.71.56-1.15.77-.42.21-.86.38-1.3.48-.44.11-.89.16-1.35.16h0l.02.02Z"/><path class="cls-1" d="m35.82,29.64v-9.42h2.48l.09,3.04-.43-.64c.16-.48.4-.9.71-1.3.32-.39.7-.7,1.15-.93.43-.23.9-.34,1.39-.34.22,0,.42,0,.61.04s.34.07.48.13l-.69,2.76c-.13-.06-.31-.12-.51-.17s-.42-.08-.64-.08c-.28,0-.53.04-.79.14s-.47.24-.66.42-.32.4-.43.64c-.1.24-.14.52-.14.83v4.86h-2.59v.02h-.01Z"/><path class="cls-1" d="m43.06,22.48v-2.27h6.34v2.27h-6.34Zm1.8,7.16v-11.81h2.57v11.81s-2.57,0-2.57,0Z"/><path class="cls-1" d="m50.9,29.64v-13.18h2.56v5.68l-.51.21c.12-.42.36-.81.7-1.17s.77-.63,1.26-.85c.49-.21.98-.32,1.5-.32.72,0,1.33.14,1.82.42.49.29.86.71,1.1,1.29s.37,1.29.37,2.15v5.76h-2.57v-5.57c0-.42-.06-.79-.18-1.08s-.3-.5-.54-.62c-.23-.13-.54-.19-.92-.18-.29,0-.56.04-.8.13s-.46.22-.64.38c-.19.17-.32.36-.42.57s-.14.44-.14.71v5.65h-2.57.02-.02Z"/><path class="cls-1" d="m63.48,18.27c-.5,0-.89-.12-1.17-.36s-.42-.58-.42-1.01.14-.73.42-.98c.29-.26.68-.39,1.17-.39s.87.12,1.15.37.42.58.42,1-.14.74-.42.99-.67.38-1.17.38h.02Zm-1.27,11.37v-9.42h2.57v9.42s-2.57,0-2.57,0Z"/><path class="cls-1" d="m67.37,29.64v-9.42h2.48l.07,1.92-.51.21c.12-.42.36-.81.7-1.17s.77-.63,1.26-.85.98-.32,1.5-.32c.72,0,1.33.14,1.82.42.49.29.86.71,1.1,1.29s.37,1.29.37,2.15v5.76h-2.57v-5.57c0-.42-.06-.79-.18-1.08s-.3-.5-.54-.62c-.23-.13-.54-.19-.92-.18-.29,0-.56.04-.8.13s-.46.22-.64.38c-.19.17-.32.36-.42.57s-.14.44-.14.71v5.65h-2.57.02-.01Z"/><path class="cls-1" d="m78.46,29.64v-13.18h2.57v13.18h-2.57Zm2.42-2.84l-.7-2.1,4.49-4.49h3.39l-7.17,6.59h-.01Zm4.06,2.84l-3.44-4.23,1.82-1.45,4.71,5.66h-3.1Z"/><path class="cls-1" d="m93.44,29.81c-1.05,0-1.95-.21-2.74-.62-.78-.42-1.38-.98-1.81-1.71-.42-.72-.64-1.55-.64-2.48,0-.73.12-1.41.37-2.01s.58-1.13,1.01-1.58c.43-.43.96-.79,1.55-1.02.6-.23,1.26-.37,1.97-.37.66,0,1.26.12,1.8.34s1.02.56,1.43.98.71.91.93,1.49c.22.57.32,1.19.31,1.87l-.02.79h-7.71l-.42-1.57h6l-.31.32v-.38c-.02-.32-.13-.62-.32-.88s-.42-.44-.71-.6-.61-.22-.97-.22c-.54,0-1,.1-1.37.31s-.64.51-.83.89-.28.87-.28,1.43.12,1.05.36,1.47.59.74,1.05.98.98.33,1.6.33c.42,0,.8-.07,1.17-.2.34-.13.73-.36,1.15-.68l1.21,1.69c-.33.3-.71.56-1.15.77-.42.21-.86.38-1.3.48-.44.11-.89.16-1.35.16h0l.02.02Z"/><path class="cls-1" d="m99.34,29.64v-9.42h2.48l.09,3.04-.43-.64c.16-.48.4-.9.71-1.3.32-.39.7-.7,1.15-.93.43-.23.9-.34,1.39-.34.22,0,.42,0,.61.04s.34.07.48.13l-.69,2.76c-.13-.06-.31-.12-.51-.17s-.42-.08-.64-.08c-.28,0-.53.04-.79.14s-.47.24-.66.42-.32.4-.43.64c-.1.24-.14.52-.14.83v4.86h-2.59v.02h-.01Z"/></svg>