<?xml version="1.0" encoding="UTF-8"?><svg id="Layer_1" xmlns="http://www.w3.org/2000/svg" width="89" height="30" viewBox="0 0 89 30"><defs><style>.cls-1{fill:#6668aa;stroke-width:0px;}</style></defs><path class="cls-1" d="m25.1,3.9c-6.1,0-11.1,5-11.1,11.1s5,11.1,11.1,11.1,11.1-5,11.1-11.1c.1-6.1-4.9-11.1-11.1-11.1Zm0,19.4c-1.3-6.1-2.3-7.1-8.3-8.3,6.1-1.3,7.1-2.3,8.3-8.3,1.3,6.1,2.3,7.1,8.3,8.3-6,1.3-7,2.3-8.3,8.3Z"/><path class="cls-1" d="m25.1,0C17.2,0,9.3,4.9,1.7,15c3.8,5,7.6,8.8,11.5,11.3,3.9,2.5,7.9,3.7,11.9,3.7,7.9,0,15.9-4.9,23.4-15C41,4.9,33.1,0,25.1,0Zm0,28.1c-7.2,0-13.1-5.9-13.1-13.1S17.9,1.9,25.1,1.9s13.1,5.9,13.1,13.1-5.8,13.1-13.1,13.1Z"/></svg>