<?xml version="1.0" encoding="UTF-8"?><svg id="Layer_1" xmlns="http://www.w3.org/2000/svg" width="156.71" height="30.03" viewBox="0 0 156.71 30.03"><defs><style>.cls-1{fill:#6668aa;}.cls-1,.cls-2{stroke-width:0px;}</style></defs><path class="cls-1" d="m23.4,3.93c-6.1,0-11.1,5-11.1,11.1s5,11.1,11.1,11.1,11.1-5,11.1-11.1c.1-6.1-4.9-11.1-11.1-11.1Zm0,19.4c-1.3-6.1-2.3-7.1-8.3-8.3,6.1-1.3,7.1-2.3,8.3-8.3,1.3,6.1,2.3,7.1,8.3,8.3-6,1.3-7,2.3-8.3,8.3Z"/><path class="cls-1" d="m23.4.03C15.5.03,7.6,4.93,0,15.03c3.8,5,7.6,8.8,11.5,11.3,3.9,2.5,7.9,3.7,11.9,3.7,7.9,0,15.9-4.9,23.4-15C39.3,4.93,31.4.03,23.4.03Zm0,28.1c-7.2,0-13.1-5.9-13.1-13.1S16.2,1.93,23.4,1.93s13.1,5.9,13.1,13.1-5.8,13.1-13.1,13.1Z"/><path class="cls-2" d="m53.92,13.26V3.14h-3.68V.72h10.25v2.42h-3.83v10.13h-2.74Z"/><path class="cls-2" d="m62.2,13.26V0h2.57v5.72l-.51.22c.12-.43.36-.82.71-1.17.35-.35.77-.64,1.26-.85.49-.22.99-.32,1.51-.32.73,0,1.34.14,1.83.43.49.29.86.72,1.11,1.3.25.58.37,1.3.37,2.16v5.79h-2.59v-5.61c0-.43-.06-.79-.18-1.08-.12-.29-.3-.5-.55-.63-.24-.13-.55-.19-.93-.18-.29,0-.56.04-.8.13-.24.09-.46.22-.65.39s-.33.36-.43.57c-.1.22-.15.45-.15.72v5.68h-2.59Z"/><path class="cls-2" d="m77.94,13.44c-1.05,0-1.96-.21-2.75-.63-.78-.42-1.39-.99-1.82-1.72-.43-.73-.65-1.56-.65-2.49,0-.74.12-1.42.37-2.03s.58-1.14,1.02-1.59c.44-.44.96-.79,1.56-1.03.6-.24,1.26-.37,1.98-.37.66,0,1.26.12,1.81.35.55.23,1.03.56,1.44.99.41.42.72.92.94,1.5.22.57.32,1.2.31,1.88l-.02.79h-7.75l-.42-1.58h6.04l-.31.32v-.38c-.02-.33-.13-.63-.32-.88s-.43-.45-.72-.6c-.29-.15-.61-.22-.97-.22-.55,0-1.01.1-1.38.31s-.65.51-.84.9c-.19.39-.28.87-.28,1.44s.12,1.05.36,1.48.59.75,1.05.98c.46.23.99.34,1.61.34.43,0,.81-.07,1.17-.2s.74-.36,1.15-.68l1.22,1.7c-.34.3-.72.56-1.15.77-.42.21-.86.38-1.31.48-.45.11-.9.16-1.35.16Z"/><path class="cls-2" d="m56.93,30c-.94,0-1.8-.16-2.6-.48-.8-.32-1.48-.77-2.06-1.35-.58-.58-1.03-1.26-1.35-2.05-.32-.79-.48-1.66-.48-2.6s.16-1.79.48-2.58c.32-.79.77-1.48,1.35-2.06.58-.59,1.26-1.04,2.06-1.36.8-.32,1.66-.48,2.6-.48s1.8.16,2.58.48,1.47.78,2.05,1.36c.58.58,1.04,1.28,1.36,2.07s.48,1.65.48,2.57-.16,1.79-.48,2.58c-.32.79-.77,1.48-1.36,2.06-.58.59-1.27,1.04-2.05,1.36s-1.64.48-2.58.48Zm0-2.55c.54,0,1.03-.1,1.48-.3.45-.2.84-.47,1.18-.82.33-.35.59-.77.77-1.25.18-.48.27-1,.27-1.58s-.09-1.08-.27-1.56c-.18-.48-.44-.9-.77-1.25-.33-.36-.73-.64-1.18-.83-.45-.2-.94-.29-1.48-.29s-1.03.1-1.49.29c-.46.2-.85.47-1.19.83s-.59.77-.78,1.25c-.18.48-.27,1.01-.27,1.59,0,.75.16,1.42.48,2.02.32.59.76,1.06,1.31,1.4.55.34,1.19.51,1.92.51Z"/><path class="cls-2" d="m68.39,29.83l-4.05-9.48h2.83l2.57,7.04-.58.11,2.7-7.15h2.77l-4.25,9.48h-1.99Z"/><path class="cls-2" d="m80.33,30c-1.05,0-1.96-.21-2.75-.63-.78-.42-1.39-.99-1.82-1.72-.43-.73-.65-1.56-.65-2.49,0-.74.12-1.42.37-2.03s.58-1.14,1.02-1.59c.44-.44.96-.79,1.56-1.03.6-.24,1.26-.37,1.98-.37.66,0,1.26.12,1.81.35.55.23,1.03.56,1.44.99.41.42.72.92.94,1.5.22.57.32,1.2.31,1.88l-.02.79h-7.75l-.42-1.58h6.04l-.31.32v-.38c-.02-.33-.13-.63-.32-.88s-.43-.45-.72-.6-.61-.22-.97-.22c-.55,0-1.01.1-1.38.31s-.65.51-.84.9c-.19.39-.28.87-.28,1.44s.12,1.05.36,1.48c.24.42.59.75,1.05.98.46.23.99.34,1.61.34.43,0,.81-.07,1.17-.2.35-.13.74-.36,1.15-.68l1.22,1.7c-.34.3-.72.56-1.15.77-.42.21-.86.38-1.31.48-.45.11-.9.16-1.35.16Z"/><path class="cls-2" d="m86.28,29.83v-9.48h2.5l.09,3.05-.44-.65c.16-.48.4-.91.72-1.31.32-.39.7-.71,1.15-.94.44-.23.91-.35,1.4-.35.22,0,.42.01.61.04.19.03.35.07.48.13l-.69,2.78c-.13-.06-.31-.12-.52-.17s-.43-.08-.65-.08c-.28,0-.54.05-.79.15-.25.1-.47.25-.66.43s-.33.4-.44.65c-.1.25-.15.53-.15.84v4.89h-2.61Z"/><path class="cls-2" d="m93.57,22.62v-2.28h6.38v2.28h-6.38Zm1.81,7.21v-11.88h2.59v11.88h-2.59Z"/><path class="cls-2" d="m101.45,29.83v-13.26h2.57v5.72l-.51.21c.12-.43.36-.82.71-1.17s.77-.64,1.26-.85c.49-.21.99-.32,1.51-.32.73,0,1.34.14,1.83.43.49.29.86.72,1.11,1.3.25.58.37,1.3.37,2.16v5.79h-2.59v-5.61c0-.43-.06-.79-.18-1.08-.12-.29-.3-.5-.55-.63-.24-.13-.55-.19-.93-.18-.29,0-.56.04-.8.13s-.46.22-.65.38c-.19.17-.33.36-.43.57-.1.21-.15.45-.15.72v5.68h-2.59Z"/><path class="cls-2" d="m114.11,18.39c-.5,0-.89-.12-1.17-.36-.28-.24-.42-.58-.42-1.02,0-.41.14-.74.43-.99.29-.26.68-.39,1.18-.39s.87.12,1.15.37c.28.25.42.58.42,1.01s-.14.75-.42,1c-.28.25-.67.38-1.17.38Zm-1.28,11.44v-9.48h2.59v9.48h-2.59Z"/><path class="cls-2" d="m118.03,29.83v-9.48h2.5l.07,1.94-.51.21c.12-.43.36-.82.71-1.17s.77-.64,1.26-.85c.49-.21.99-.32,1.51-.32.73,0,1.34.14,1.83.43.49.29.86.72,1.11,1.3.25.58.37,1.3.37,2.16v5.79h-2.59v-5.61c0-.43-.06-.79-.18-1.08-.12-.29-.3-.5-.55-.63-.24-.13-.55-.19-.93-.18-.29,0-.56.04-.8.13s-.46.22-.65.38c-.19.17-.33.36-.43.57-.1.21-.15.45-.15.72v5.68h-2.59Z"/><path class="cls-2" d="m129.19,29.83v-13.26h2.59v13.26h-2.59Zm2.44-2.85l-.71-2.12,4.52-4.52h3.41l-7.22,6.63Zm4.08,2.85l-3.46-4.25,1.84-1.45,4.74,5.7h-3.12Z"/><path class="cls-2" d="m144.26,30c-1.05,0-1.96-.21-2.75-.63-.78-.42-1.39-.99-1.82-1.72-.43-.73-.65-1.56-.65-2.49,0-.74.12-1.42.37-2.03s.58-1.14,1.02-1.59c.44-.44.96-.79,1.56-1.03.6-.24,1.26-.37,1.98-.37.66,0,1.26.12,1.81.35.55.23,1.03.56,1.44.99.41.42.72.92.94,1.5.22.57.32,1.2.31,1.88l-.02.79h-7.75l-.42-1.58h6.04l-.31.32v-.38c-.02-.33-.13-.63-.32-.88s-.43-.45-.72-.6-.61-.22-.97-.22c-.55,0-1.01.1-1.38.31s-.65.51-.84.9c-.19.39-.28.87-.28,1.44s.12,1.05.36,1.48c.24.42.59.75,1.05.98.46.23.99.34,1.61.34.43,0,.81-.07,1.17-.2.35-.13.74-.36,1.15-.68l1.22,1.7c-.34.3-.72.56-1.15.77-.42.21-.86.38-1.31.48-.45.11-.9.16-1.35.16Z"/><path class="cls-2" d="m150.2,29.83v-9.48h2.5l.09,3.05-.44-.65c.16-.48.4-.91.72-1.31.32-.39.7-.71,1.15-.94.44-.23.91-.35,1.4-.35.22,0,.42.01.61.04.19.03.35.07.48.13l-.69,2.78c-.13-.06-.31-.12-.52-.17s-.43-.08-.65-.08c-.28,0-.54.05-.79.15-.25.1-.47.25-.66.43s-.33.4-.44.65c-.1.25-.15.53-.15.84v4.89h-2.61Z"/></svg>