<?xml version="1.0" encoding="UTF-8"?><svg id="Layer_1" xmlns="http://www.w3.org/2000/svg" width="161.06" height="30" viewBox="0 0 161.06 30"><defs><style>.cls-1{fill:#6668aa;}.cls-1,.cls-2{stroke-width:0px;}</style></defs><path class="cls-1" d="m23.4,3.9c-6.1,0-11.1,5-11.1,11.1s5,11.1,11.1,11.1,11.1-5,11.1-11.1c.1-6.1-4.9-11.1-11.1-11.1Zm0,19.4c-1.3-6.1-2.3-7.1-8.3-8.3,6.1-1.3,7.1-2.3,8.3-8.3,1.3,6.1,2.3,7.1,8.3,8.3-6,1.3-7,2.3-8.3,8.3Z"/><path class="cls-1" d="m23.4,0C15.5,0,7.6,4.9,0,15c3.8,5,7.6,8.8,11.5,11.3,3.9,2.5,7.9,3.7,11.9,3.7,7.9,0,15.9-4.9,23.4-15C39.3,4.9,31.4,0,23.4,0Zm0,28.1c-7.2,0-13.1-5.9-13.1-13.1S16.2,1.9,23.4,1.9s13.1,5.9,13.1,13.1-5.8,13.1-13.1,13.1Z"/><path class="cls-2" d="m69.18,13.43V4.38h-3.29v-2.16h9.16v2.16h-3.42v9.05h-2.45,0Z"/><path class="cls-2" d="m76.58,13.43V1.58h2.3v5.11l-.46.2c.11-.38.32-.73.63-1.05s.69-.57,1.13-.76c.44-.2.88-.29,1.35-.29.65,0,1.2.13,1.64.38.44.26.77.64.99,1.16s.33,1.16.33,1.93v5.18h-2.31v-5.01c0-.38-.05-.71-.16-.97s-.27-.45-.49-.56c-.21-.12-.49-.17-.83-.16-.26,0-.5.04-.72.12-.21.08-.41.2-.58.35s-.29.32-.38.51c-.09.2-.13.4-.13.64v5.08h-2.31.02Z"/><path class="cls-2" d="m90.65,13.59c-.94,0-1.75-.19-2.46-.56-.7-.38-1.24-.88-1.63-1.54s-.58-1.39-.58-2.23c0-.66.11-1.27.33-1.81s.52-1.02.91-1.42c.39-.39.86-.71,1.39-.92s1.13-.33,1.77-.33c.59,0,1.13.11,1.62.31.49.21.92.5,1.29.88.37.38.64.82.84,1.34.2.51.29,1.07.28,1.68l-.02.71h-6.93l-.38-1.41h5.4l-.28.29v-.34c-.02-.29-.12-.56-.29-.79s-.38-.4-.64-.54-.55-.2-.87-.2c-.49,0-.9.09-1.23.28s-.58.46-.75.8c-.17.35-.25.78-.25,1.29s.11.94.32,1.32.53.67.94.88c.41.21.88.3,1.44.3.38,0,.72-.06,1.05-.18s.66-.32,1.03-.61l1.09,1.52c-.3.27-.64.5-1.03.69-.38.19-.77.34-1.17.43-.4.1-.8.14-1.21.14h0Z"/><path class="cls-2" d="m71.87,28.39c-.84,0-1.61-.14-2.32-.43s-1.32-.69-1.84-1.21-.92-1.13-1.21-1.83c-.29-.71-.43-1.48-.43-2.32s.14-1.6.43-2.31c.29-.71.69-1.32,1.21-1.84.52-.53,1.13-.93,1.84-1.22.72-.29,1.48-.43,2.32-.43s1.61.14,2.31.43,1.31.7,1.83,1.22c.52.52.93,1.14,1.22,1.85s.43,1.47.43,2.3-.14,1.6-.43,2.31c-.29.71-.69,1.32-1.22,1.84-.52.53-1.14.93-1.83,1.22s-1.47.43-2.31.43Zm0-2.28c.48,0,.92-.09,1.32-.27.4-.18.75-.42,1.05-.73.29-.31.53-.69.69-1.12s.24-.89.24-1.41-.08-.97-.24-1.39-.39-.8-.69-1.12c-.29-.32-.65-.57-1.05-.74-.4-.18-.84-.26-1.32-.26s-.92.09-1.33.26c-.41.18-.76.42-1.06.74s-.53.69-.7,1.12c-.16.43-.24.9-.24,1.42,0,.67.14,1.27.43,1.81.29.53.68.95,1.17,1.25.49.3,1.06.46,1.72.46h.02Z"/><path class="cls-2" d="m82.12,28.24l-3.62-8.47h2.53l2.3,6.29-.52.1,2.41-6.39h2.48l-3.8,8.47s-1.78,0-1.78,0Z"/><path class="cls-2" d="m92.79,28.39c-.94,0-1.75-.19-2.46-.56-.7-.38-1.24-.88-1.63-1.54s-.58-1.39-.58-2.23c0-.66.11-1.27.33-1.81s.52-1.02.91-1.42c.39-.39.86-.71,1.39-.92s1.13-.33,1.77-.33c.59,0,1.13.11,1.62.31.49.21.92.5,1.29.88.37.38.64.82.84,1.34.2.51.29,1.07.28,1.68l-.02.71h-6.93l-.38-1.41h5.4l-.28.29v-.34c-.02-.29-.12-.56-.29-.79s-.38-.4-.64-.54-.55-.2-.87-.2c-.49,0-.9.09-1.23.28s-.58.46-.75.8c-.17.35-.25.78-.25,1.29s.11.94.32,1.32c.21.38.53.67.94.88.41.21.88.3,1.44.3.38,0,.72-.06,1.05-.18.31-.12.66-.32,1.03-.61l1.09,1.52c-.3.27-.64.5-1.03.69-.38.19-.77.34-1.17.43-.4.1-.8.14-1.21.14h0Z"/><path class="cls-2" d="m98.11,28.24v-8.47h2.23l.08,2.73-.39-.58c.14-.43.36-.81.64-1.17.29-.35.63-.63,1.03-.84.39-.21.81-.31,1.25-.31.2,0,.38,0,.55.04s.31.06.43.12l-.62,2.48c-.12-.05-.28-.11-.46-.15s-.38-.07-.58-.07c-.25,0-.48.04-.71.13s-.42.22-.59.38-.29.36-.39.58c-.09.22-.13.47-.13.75v4.37h-2.33v.02Z"/><path class="cls-2" d="m104.62,21.8v-2.04h5.7v2.04h-5.7Zm1.62,6.44v-10.62h2.31v10.62h-2.31Z"/><path class="cls-2" d="m111.67,28.24v-11.85h2.3v5.11l-.46.19c.11-.38.32-.73.63-1.05s.69-.57,1.13-.76c.44-.19.88-.29,1.35-.29.65,0,1.2.13,1.64.38.44.26.77.64.99,1.16s.33,1.16.33,1.93v5.18h-2.31v-5.01c0-.38-.05-.71-.16-.97-.11-.26-.27-.45-.49-.56-.21-.12-.49-.17-.83-.16-.26,0-.5.04-.72.12s-.41.2-.58.34c-.17.15-.29.32-.38.51s-.13.4-.13.64v5.08h-2.31.02Z"/><path class="cls-2" d="m122.98,18.01c-.45,0-.8-.11-1.05-.32s-.38-.52-.38-.91c0-.37.13-.66.38-.88.26-.23.61-.35,1.05-.35s.78.11,1.03.33.38.52.38.9-.13.67-.38.89-.6.34-1.05.34Zm-1.14,10.23v-8.47h2.31v8.47h-2.31Z"/><path class="cls-2" d="m126.48,28.24v-8.47h2.23l.06,1.73-.46.19c.11-.38.32-.73.63-1.05s.69-.57,1.13-.76c.44-.19.88-.29,1.35-.29.65,0,1.2.13,1.64.38.44.26.77.64.99,1.16s.33,1.16.33,1.93v5.18h-2.31v-5.01c0-.38-.05-.71-.16-.97-.11-.26-.27-.45-.49-.56-.21-.12-.49-.17-.83-.16-.26,0-.5.04-.72.12s-.41.2-.58.34c-.17.15-.29.32-.38.51s-.13.4-.13.64v5.08h-2.31.02Z"/><path class="cls-2" d="m136.46,28.24v-11.85h2.31v11.85h-2.31Zm2.18-2.55l-.63-1.89,4.04-4.04h3.05l-6.45,5.93h0Zm3.65,2.55l-3.09-3.8,1.64-1.3,4.24,5.09s-2.79,0-2.79,0Z"/><path class="cls-2" d="m149.93,28.39c-.94,0-1.75-.19-2.46-.56-.7-.38-1.24-.88-1.63-1.54-.38-.65-.58-1.39-.58-2.23,0-.66.11-1.27.33-1.81s.52-1.02.91-1.42c.39-.39.86-.71,1.39-.92.54-.21,1.13-.33,1.77-.33.59,0,1.13.11,1.62.31s.92.5,1.29.88c.37.38.64.82.84,1.34.2.51.29,1.07.28,1.68l-.02.71h-6.93l-.38-1.41h5.4l-.28.29v-.34c-.02-.29-.12-.56-.29-.79s-.38-.4-.64-.54-.55-.2-.87-.2c-.49,0-.9.09-1.23.28s-.58.46-.75.8-.25.78-.25,1.29.11.94.32,1.32c.21.38.53.67.94.88s.88.3,1.44.3c.38,0,.72-.06,1.05-.18.31-.12.66-.32,1.03-.61l1.09,1.52c-.3.27-.64.5-1.03.69-.38.19-.77.34-1.17.43-.4.1-.8.14-1.21.14h0Z"/><path class="cls-2" d="m155.24,28.24v-8.47h2.23l.08,2.73-.39-.58c.14-.43.36-.81.64-1.17.29-.35.63-.63,1.03-.84.39-.21.81-.31,1.25-.31.2,0,.38,0,.55.04s.31.06.43.12l-.62,2.48c-.12-.05-.28-.11-.46-.15s-.38-.07-.58-.07c-.25,0-.48.04-.71.13s-.42.22-.59.38-.29.36-.39.58c-.09.22-.13.47-.13.75v4.37h-2.33v.02Z"/></svg>