<?xml version="1.0" encoding="UTF-8"?><svg id="Layer_1" xmlns="http://www.w3.org/2000/svg" width="80.69" height="89" viewBox="0 0 80.69 89"><defs><style>.cls-1{fill:#feefdc;}.cls-1,.cls-2,.cls-3{stroke-width:0px;}.cls-2{fill:#296654;}.cls-3{fill:#39b54a;}</style></defs><path class="cls-2" d="m15.22,13.01h50.49c2.52,0,4.57,2.05,4.57,4.57v50.49c0,2.52-2.05,4.56-4.56,4.56H15.22c-2.52,0-4.57-2.05-4.57-4.57V17.57c0-2.52,2.05-4.57,4.57-4.57Z"/><path class="cls-1" d="m52.46,60.66s-.05.04-.06.05c.01-.01.03-.03.06-.05Z"/><path class="cls-1" d="m41.11,27.82s.01-.05.04-.14c-.19-.06-.39-.12-.59-.17-.2-.05-.39-.1-.6-.14-.18.9-.33,1.83-.44,2.8,0,0,.03,0,.08-.02.02,0,.04,0,.06-.02.07-.02.16-.04.27-.08.04-.01.09-.03.15-.04.15-.04.33-.1.53-.17.06-.02.12-.04.19-.06.06-.02.13-.04.19-.07.02,0,.05-.02.08-.03h0c.45-.16.98-.37,1.58-.64.06-.03.13-.05.19-.08.06-.03.13-.06.2-.09-.65-.44-1.36-.86-1.94-1.04Zm-3.43-.4c.01-.11.03-.21.04-.32-.67-.02-1.35,0-2.04.07-.96.1-1.89.3-2.75.57,0,.04.01.08.02.12,0,0-.15.03-.41.12-.03,0-.07.02-.1.03.15.41.23.64.2.61-.2.13-.39.27-.58.41l1.03-.28,4.88-1.33-.28-.02Z"/><path class="cls-1" d="m51.2,54.85c-2.1-1.09-10.06-.98-10.97.72-1.12,2.09,1.84,6.34,2.51,7.1-1.36.83-2.15,1.42-3.99,2.6-1.54.99-4.6,2.82-6.92,4.25-.77.47-1.65.8-2.47,1.13-2.74,1.1-4.94-.21-4.01-3.45.52-1.8.95-2.21,1.27-2.91,2.1.15,8.76-2.07,9.1-3.89.36-1.98-.68-2.61-1.62-3.94-.49-.69-.52-1.23-.06-1.88,1.32-1.88,2.54-3.85,3.98-5.64.18-.23.37-.44.56-.65.81-.87,1.74-1.56,2.8-2.02.81-.35,1.69-.57,2.65-.62.63-.03.89-.33.97-1.01.05-.48.11-.98.2-1.46.1-.58.25-1.14.5-1.65.45-.92.73-1.83.86-2.74.21-1.42.02-2.83-.55-4.24-.45-.94-.63-2.89.92-4l1.65-.62c-1.27-.22-2.48-.08-3.63.41,0,0-.19-.16-.5-.41-.19-.15-.41-.33-.67-.52h0c-.08-.06-.17-.13-.26-.19-.16-.12-.33-.24-.5-.35-.07.03-.13.06-.2.09-.06.03-.13.06-.19.08-.6.26-1.13.47-1.58.64h0s-.05.02-.08.03c-.06.02-.13.04-.19.07-.06.02-.13.04-.19.06-.2.07-.38.13-.53.17-.05.01-.1.03-.15.04-.11.03-.2.06-.27.08-.02,0-.05.01-.06.02-.05.01-.08.02-.08.02.11-.97.26-1.9.44-2.8-.29-.06-.59-.11-.89-.15-.09-.01-.18-.02-.27-.03-.19-.02-.38-.04-.57-.05h0c-.17-.01-.34-.02-.51-.03-.01.11-.03.21-.04.32l.28.02-4.88,1.33-1.03.28c.18-.15.38-.28.58-.41.03.03-.04-.21-.2-.61-.52.17-1.4.51-2.45,1.09-2.31,1.28-5.47,3.77-7.58,8.39-.17.37-.14.82.1,1.15.21.29.58.61,1.23.89.52.22,1.23.41,2.18.53,0,0-.9.39-2.08.37-.27,0-.55-.03-.85-.09-.24-.04-.48.07-.59.28-.67,1.39,1.66,5.99,6.61,5.66.22.77-.04,1.19-1.17,2.42-1.75,1.91-3.6,3.78-5.06,5.9-1.31,1.9-1.81,4.15-.67,6.45.12.25.07.62.02.93-.47,3.12-.92,6.24.03,9.34.13.43.28.86.44,1.29h29.93c.61-2.52.34-5.12-.12-7.74-.14-.82-.06-1.42.54-2.1,2.73-3.07,1.36-6.32-1.77-7.94Zm-17.79-18.49s.89.4.45,1.61c0,0,1.54-.27,1-2.51l1.47-.97s.53.78.63,1.83c.17,1.84-2.19,3.14-3.47,2.88-.77-.16-1.52-.64-1.91-1.02h-1.02s2.84-1.82,2.84-1.82Zm19.02,24.33s0,0,0,0h0s0,0,0,0c0,0-.02.02-.02.02,0,0,.01-.01.02-.02,0,0,0,0,0,0,0,0,.02-.02.04-.03-.01.01-.02.02-.03.02Z"/><path class="cls-1" d="m52.46,60.66s-.05.04-.06.05c.01-.01.03-.03.06-.05Z"/><path class="cls-1" d="m49.74,46.78c.38-.78,5.21-7.98,12.3-12.45,1.65-1.04,3.56-1.29,5.5-.98,1.35.22,1.93.89,1.17,1.64-1.94,1.91-12.77,8.98-18.62,12.11-.12-.11-.23-.21-.35-.32Z"/><path class="cls-1" d="m51.65,48.88c6.15-4.81,12.61-6.12,16.63-2.41-5,2.48-10.7,3.32-16.63,2.41Z"/><path class="cls-1" d="m48.01,45.34c.12-.67,3.64-13.94,4.86-16,.08-.14.29-.14.37,0,.64,1.15,2.38,5.17-.87,9.81-1.5,1.84-2.62,3.98-3.91,5.99-.07.1-.14.2-.22.3-.08-.03-.16-.06-.23-.1Z"/><path class="cls-1" d="m38.26,27.28l.28-.04-5.37,2.93c.14-.18.3-.36.47-.54.04.02-.09-.19-.33-.55-1.23-1.83-5.38-7.56-5.15-7.73.13-.09.78-.87,1.32-1.88.43-.81.79-1.76.76-2.64-.76,1.06-1.53,2.07-2.31,3.01-2.88,3.48-5.98,6.05-9.5,6.79-.25-1.49-.37-2.97-.35-4.44.06-3.59,1.01-7.1,3.14-10.51,1.31-2.1,3.55-3.5,6.01-3.61,2.52-.11,4.55,1.09,6.12,3.58,1.38,1.78,2.39,3.86,3.13,6.15.91,2.79,1.43,5.89,1.74,9.16.01.11.02.21.03.32Z"/><path class="cls-1" d="m49.36,0c1.69,5.04,2.04,9.54,1.62,13.46-.79,7.24-4.22,12.48-6.69,15.4-1.49,1.76-2.63,2.68-2.63,2.68-.31-.92-.58-1.83-.8-2.72-.91-3.7-1.03-7.15-.65-10.28C41.55,7.17,49.36,0,49.36,0Z"/><path class="cls-2" d="m2.96,88.76v-8.69H0v-1.89h7.91v1.89h-2.96v8.69h-2Z"/><path class="cls-2" d="m9.33,78.18h2v4.23h4.45v-4.23h2v10.58h-2v-4.46h-4.45v4.46h-2v-10.58Z"/><path class="cls-2" d="m19.23,83.47c0-3.09,2.38-5.53,5.53-5.53s5.53,2.44,5.53,5.53-2.38,5.53-5.53,5.53-5.53-2.44-5.53-5.53Zm9.06,0c0-2.17-1.57-3.64-3.53-3.64s-3.53,1.46-3.53,3.64,1.57,3.64,3.53,3.64,3.53-1.46,3.53-3.64Z"/><path class="cls-3" d="m33.71,88.76v-8.69h-2.96v-1.89h7.91v1.89h-2.96v8.69h-2Z"/><path class="cls-3" d="m40.08,78.18h3.86c2.13,0,3.53,1.4,3.53,3.34,0,1.4-1.02,2.51-2.26,2.96v.1s2.82,4.06,2.82,4.06v.12h-2.29l-2.73-3.98h-.93v3.98h-2v-10.58Zm3.84,4.77c.9,0,1.55-.62,1.55-1.46,0-.75-.52-1.48-1.52-1.48h-1.88v2.94h1.85Z"/><path class="cls-3" d="m52.33,78.18h2.28l3.98,10.58h-2.2l-.87-2.53h-4.08l-.87,2.53h-2.2l3.98-10.58Zm2.53,6.22l-.95-2.65-.38-1.29h-.12l-.38,1.29-.95,2.65h2.78Z"/><path class="cls-3" d="m59.83,78.18h2.32l4.26,7.1h.12l-.12-2.04v-5.06h1.98v10.58h-2.1l-4.49-7.49h-.12l.12,2.04v5.45h-1.97v-10.58Z"/><path class="cls-3" d="m75.4,82.95h5.19c.06.24.1.59.1.93,0,1.36-.4,2.59-1.29,3.53-.95,1.01-2.26,1.58-3.96,1.58-3.07,0-5.59-2.34-5.59-5.53s2.51-5.53,5.59-5.53c1.71,0,3.07.62,4.04,1.67l-1.37,1.35c-.69-.72-1.49-1.12-2.68-1.12-1.94,0-3.58,1.43-3.58,3.64s1.66,3.64,3.61,3.64c1.12,0,1.88-.35,2.42-.87.4-.35.68-.92.84-1.58h-3.33v-1.7Z"/></svg>