<?xml version="1.0" encoding="UTF-8"?><svg id="Layer_2" xmlns="http://www.w3.org/2000/svg" width="1000" height="1000" viewBox="0 0 1000 1000"><defs><style>.cls-1{fill:none;stroke:#fff;stroke-miterlimit:10;stroke-width:24.84px;}.cls-2,.cls-3{stroke-width:0px;}.cls-3{fill:#fff;}</style></defs><path class="cls-2" d="m936.74,500c-140.29-179.32-288.99-266.94-436.74-266.85-147.75-.09-296.46,87.53-436.74,266.85,0,0,0,0,0,0,0,0,0,0,0,0,140.29,179.32,288.99,266.94,436.74,266.85,147.75.09,296.46-87.53,436.74-266.85,0,0,0,0,0,0,0,0,0,0,0,0Z"/><circle class="cls-1" cx="500" cy="501.71" r="214.22"/><path class="cls-3" d="m637.09,501.71c-99.54,20.74-116.35,37.55-137.09,137.09-20.74-99.54-37.55-116.35-137.09-137.09,99.54-20.74,116.35-37.55,137.09-137.09,20.74,99.54,37.55,116.35,137.09,137.09Z"/></svg>